<svg width="36" height="32" viewBox="0 0 36 32" fill="none" xmlns="http://www.w3.org/2000/svg">
<path d="M27.9054 8.18124L29.6477 6.83424L32.1692 10.0734L28.1661 19.8548L7.79001 27.211L5.63788 24.3234L8.67701 15.953L27.9054 8.18124Z" fill="#699635"/>
<path d="M27.9402 5.10083C27.9402 5.10083 28.5558 9.80201 25.4235 16.6488C25.4235 16.6488 16.9154 22.6297 4.80847 23.3173C4.80847 23.3173 7.57381 17.3396 6.36128 13.1803C6.36128 13.1803 13.0996 15.2888 27.9402 5.10083Z" fill="#83BF4F"/>
<path d="M24.8914 8.58867C24.8914 8.58867 24.9424 9.53069 26.4239 8.85597L24.8857 13.971C24.8857 13.971 22.5772 14.8604 22.7279 16.4658C22.7279 16.4658 13.5118 20.7441 8.36835 21.4261C8.36835 21.4261 9.19293 19.9908 7.44821 20.1171C7.44821 20.1171 8.05814 17.8548 8.05572 16.6342C8.05572 16.6342 9.73402 16.0656 9.7802 14.5663C9.83771 14.6481 14.6231 15.1957 24.8914 8.58867Z" stroke="#699635" stroke-miterlimit="10"/>
<path d="M20.0298 15.0621C20.6446 15.2411 21.8232 14.6571 22.5505 13.7791C23.2779 12.901 23.2844 12.0408 22.6696 11.8618C22.0548 11.6828 20.8763 12.2668 20.1489 13.1448C19.4216 14.0228 19.3576 14.8012 20.0298 15.0621Z" fill="#699635"/>
<path d="M19.1356 10.3123C19.1356 10.3123 19.0125 14.3104 17.3131 20.7611L19.1202 23.1579L15.6818 24.3526L13.7597 21.7922C13.7597 21.7922 15.1383 14.7113 14.8216 12.0003C14.7398 12.0578 16.5331 11.6528 19.1356 10.3123Z" fill="#F9F3D9"/>
</svg>
